<?xml version="1.0" encoding="iso-8859-1"?>
<!-- Generator: Adobe Illustrator 19.0.0, SVG Export Plug-In . SVG Version: 6.00 Build 0)  -->
<svg version="1.1" id="Capa_1" xmlns="http://www.w3.org/2000/svg" xmlns:xlink="http://www.w3.org/1999/xlink" x="0px" y="0px"
	 viewBox="0 0 512 512" style="enable-background:new 0 0 512 512;" xml:space="preserve">
<g>
	<g>
		<path d="M432,32h-72V8c0-4.418-3.582-8-8-8H160c-4.418,0-8,3.582-8,8v24H80c-13.255,0-24,10.745-24,24v432
			c0,13.255,10.745,24,24,24h352c13.255,0,24-10.745,24-24V56C456,42.745,445.255,32,432,32z M160,80h160V64H168V16h176v56
			c0,4.418,3.582,8,8,8h16v16H144V80H160z M376,112c4.418,0,8-3.582,8-8h16v352H112V104h16c0,4.418,3.582,8,8,8H376z M440,488
			c0,4.418-3.582,8-8,8H80c-4.418,0-8-3.582-8-8V56c0-4.418,3.582-8,8-8h72v16h-16c-4.418,0-8,3.582-8,8v16h-24
			c-4.418,0-8,3.582-8,8v368c0,4.418,3.582,8,8,8h304c4.418,0,8-3.582,8-8V96c0-4.418-3.582-8-8-8h-24V72c0-4.418-3.582-8-8-8h-16
			V48h72c4.418,0,8,3.582,8,8V488z"/>
	</g>
</g>
<g>
	<g>
		<path d="M200,368h-48c-4.418,0-8,3.582-8,8v48c0,4.418,3.582,8,8,8h48c4.418,0,8-3.582,8-8v-48C208,371.582,204.418,368,200,368z
			 M192,416h-32v-32h32V416z"/>
	</g>
</g>
<g>
	<g>
		<rect x="224" y="376" width="16" height="16"/>
	</g>
</g>
<g>
	<g>
		<rect x="256" y="376" width="16" height="16"/>
	</g>
</g>
<g>
	<g>
		<rect x="224" y="408" width="144" height="16"/>
	</g>
</g>
<g>
	<g>
		<path d="M344,200h-48v-48c0-4.418-3.582-8-8-8h-64c-4.418,0-8,3.582-8,8v48h-48c-4.418,0-8,3.582-8,8v64c0,4.418,3.582,8,8,8h48
			v48c0,4.418,3.582,8,8,8h64c4.418,0,8-3.582,8-8v-48h48c4.418,0,8-3.582,8-8v-64C352,203.582,348.418,200,344,200z M336,264h-48
			c-4.418,0-8,3.582-8,8v48h-48v-48c0-4.418-3.582-8-8-8h-48v-48h48c4.418,0,8-3.582,8-8v-48h48v48c0,4.418,3.582,8,8,8h48V264z"/>
	</g>
</g>
<g>
</g>
<g>
</g>
<g>
</g>
<g>
</g>
<g>
</g>
<g>
</g>
<g>
</g>
<g>
</g>
<g>
</g>
<g>
</g>
<g>
</g>
<g>
</g>
<g>
</g>
<g>
</g>
<g>
</g>
</svg>
